<svg width="37" height="21" viewBox="0 0 37 21" fill="none" xmlns="http://www.w3.org/2000/svg">
<path fill-rule="evenodd" clip-rule="evenodd" d="M30.5336 7.78446C29.8803 7.78446 29.2499 7.8835 28.6554 8.06599C27.571 3.44068 23.4654 3.05176e-05 18.5652 3.05176e-05C13.6956 3.05176e-05 9.61061 3.39848 8.49588 7.98035C7.99235 7.85298 7.46589 7.78446 6.92345 7.78446C3.3521 7.78446 0.456848 10.7158 0.456848 14.3314C0.456848 17.9474 3.3521 20.8786 6.92345 20.8786H16.9837C17.4994 20.9585 18.0275 21 18.5652 21C19.103 21 19.6312 20.9585 20.1469 20.8786H30.5336C34.1048 20.8786 36.9999 17.9474 36.9999 14.3314C36.9999 10.7158 34.1048 7.78446 30.5336 7.78446Z" fill="#DDEEFB"/>
</svg>
