<svg width="52" height="52" viewBox="0 0 52 52" fill="none" xmlns="http://www.w3.org/2000/svg">
<circle cx="25.9352" cy="25.9352" r="25.9352" fill="#EEF7FE"/>
<mask id="mask0" mask-type="alpha" maskUnits="userSpaceOnUse" x="0" y="2" width="51" height="50">
<path d="M50.5479 27.0806C50.5484 30.3529 49.9044 33.5932 48.6527 36.6165C47.401 39.6399 45.5661 42.387 43.2528 44.701C40.9394 47.0151 38.193 48.8507 35.1703 50.1031C32.1475 51.3554 28.9078 52 25.6359 52C19.0278 52 12.6903 49.3746 8.01759 44.7013C3.34492 40.028 0.719849 33.6896 0.719849 27.0806C0.719849 20.4716 3.34492 14.1332 8.01759 9.45991C12.6903 4.78662 19.0278 2.16119 25.6359 2.16119C28.9078 2.16119 32.1475 2.80578 35.1703 4.05815C38.193 5.31052 40.9394 7.14613 43.2528 9.46017C45.5661 11.7742 47.401 14.5213 48.6527 17.5447C49.9044 20.568 50.5484 23.8083 50.5479 27.0806Z" fill="#F1F3F6"/>
</mask>
<g mask="url(#mask0)">
<path d="M45.9051 55.2401H6.37622C6.44816 54.5402 6.80457 52.1069 8.58335 48.9966C10.6957 45.2976 20.1127 45.8242 20.4299 45.2976C20.5673 45.0687 20.6457 44.1366 20.6915 43.1587C20.7471 41.8897 20.7471 40.5423 20.7471 40.5423L26.1423 42.1318L31.5375 40.5423C31.5375 40.5423 31.5375 41.8799 31.5898 43.1587C31.6389 44.1399 31.7141 45.085 31.8547 45.3172C32.1817 45.8438 41.5857 45.3172 43.7013 49.0162C45.4768 52.1069 45.8365 54.5402 45.9051 55.2401Z" fill="#E1A387"/>
<path d="M45.9051 55.2397H6.37622C6.44816 54.5398 6.80457 52.1065 8.58335 48.9962C10.3621 45.886 17.3792 45.7584 19.7008 45.4837C20.1226 45.4314 20.3874 45.379 20.4365 45.2973C20.4365 45.2973 26.0442 52.5971 31.8612 45.2973C31.9135 45.3888 32.2471 45.4477 32.7703 45.5066C35.2422 45.7682 41.9617 45.9448 43.7078 48.9962C45.4768 52.1065 45.8365 54.5398 45.9051 55.2397Z" fill="#860018"/>
<path d="M32.7631 45.5066C28.1854 51.8743 22.7248 48.3847 19.6838 45.4837C20.1056 45.4314 20.3705 45.379 20.4195 45.2973C20.4195 45.2973 26.0273 52.5971 31.8443 45.2973C31.9064 45.3888 32.24 45.4477 32.7631 45.5066Z" fill="#6B1524"/>
<path d="M16.9086 29.5207C16.9086 29.5207 14.4072 25.2951 13.3739 28.9156C12.3406 32.5361 14.8388 34.2629 16.477 33.9195C18.1152 33.5761 16.9086 29.5207 16.9086 29.5207Z" fill="#E1A387"/>
<path d="M16.6183 30.2108C16.6183 30.2108 14.8951 27.5355 14.2901 28.6148C13.922 29.3778 13.7736 30.2283 13.8618 31.0709C13.8618 31.0709 14.2051 29.5632 15.3267 30.4168C15.3267 30.4168 14.2476 32.8305 16.4482 32.1404C16.4351 32.1502 17.3409 31.4176 16.6183 30.2108Z" fill="#CE8D75"/>
<path d="M34.8645 29.5207C34.8645 29.5207 37.3659 25.2951 38.3992 28.9156C39.4324 32.5361 36.9343 34.2629 35.2961 33.9195C33.6579 33.5761 34.8645 29.5207 34.8645 29.5207Z" fill="#E1A387"/>
<path d="M34.8992 30.4916C34.8992 30.4916 36.6224 27.8163 37.2273 28.8956C37.5956 29.6586 37.745 30.5088 37.6589 31.3517C37.6589 31.3517 37.3123 29.844 36.1908 30.6976C36.1908 30.6976 37.2698 33.1113 35.0692 32.4212C35.0692 32.431 34.1667 31.6984 34.8992 30.4916Z" fill="#CE8D75"/>
<path d="M34.9284 36.4184C34.7388 39.5254 31.1976 41.8245 28.8825 42.8515C27.5562 43.4701 26.0676 43.6511 24.6318 43.3682C15.8817 40.7943 16.1302 34.8649 16.5226 33.2002C16.915 31.5355 16.3787 28.2944 17.4054 24.4482C17.5377 23.9505 17.7344 23.4722 17.9907 23.0255C19.557 20.2914 22.8955 19.4116 22.8955 19.4116C28.6798 15.6734 32.7278 19.3462 34.0619 22.3551C34.1506 22.5515 34.2292 22.7524 34.2974 22.9568C35.3077 26.054 35.1246 32.932 34.9284 36.4184Z" fill="#F2C2AC"/>
<path fill-rule="evenodd" clip-rule="evenodd" d="M31.9794 16.8219C32.0023 16.8162 32.0252 16.8107 32.0482 16.8053C32.2474 16.7564 32.4494 16.7204 32.6531 16.6974C32.8237 16.6991 32.9941 16.7112 33.1632 16.7334C33.343 16.7612 33.5202 16.8039 33.693 16.8609C36.2107 17.708 36.4102 21.6523 36.0701 25.0863C36.044 25.3283 36.0178 25.5704 35.9884 25.8058C35.822 27.1253 35.5874 28.4353 35.2854 29.7305C35.255 29.8659 35.226 29.9852 35.2012 30.0866C35.186 30.1492 35.1724 30.2051 35.1611 30.2538C35.1252 30.4042 35.1022 30.486 35.1022 30.486L35.0401 30.0739V30.0183C34.9061 28.9881 34.3862 27.657 33.7518 26.303C33.0109 24.805 32.2054 23.3403 31.3377 21.913C29.8392 22.3999 27.5807 23.0627 24.6964 23.7023C24.134 23.8266 23.5519 23.9509 22.9405 24.0719C22.1099 24.2376 21.238 24.3989 20.3246 24.5559C16.6984 25.1675 15.0471 24.1046 14.3245 22.7375C14.2666 22.6312 14.2142 22.5221 14.1675 22.4104C13.4907 20.7752 13.9779 18.8554 13.9779 18.8554C14.1675 19.2576 14.5861 19.2969 15.1877 19.0843C15.2991 19.0456 15.4082 19.0008 15.5147 18.9502C16.323 18.5941 17.3878 17.9061 18.619 17.1105C20.69 15.7723 23.2321 14.1296 25.8179 13.2497C26.3301 13.0694 26.8708 12.9841 27.4136 12.9978C27.6706 13.0069 27.926 13.0431 28.1754 13.1058C28.9862 13.327 29.7204 13.7671 30.2976 14.378C30.3859 14.4696 30.4741 14.5612 30.5592 14.656C31.0833 15.2624 31.5303 15.9314 31.89 16.6478C31.9203 16.7056 31.9501 16.7637 31.9794 16.8219Z" fill="#A16929"/>
<path d="M16.9019 19.1524C16.794 19.4795 16.4442 25.9093 16.7777 28.8266L19.8611 20.7386L16.9019 19.1524Z" fill="#A16929"/>
<path d="M30.5669 14.6433C29.7723 15.5427 28.9646 16.4257 28.0818 17.2597C25.6392 19.5818 22.8108 21.5965 19.5149 22.4926C17.8799 22.9308 15.9704 23.2056 14.3256 22.7379C14.2678 22.6316 14.2154 22.5225 14.1687 22.4108C14.3093 22.4533 14.4499 22.486 14.6036 22.5187C17.5464 23.1205 20.8163 22.0511 23.3504 20.5564C26.0072 18.9158 28.3601 16.8279 30.3053 14.3849C30.3936 14.4569 30.4818 14.5485 30.5669 14.6433Z" fill="#C98643"/>
<path d="M28.1835 13.0928C26.6924 15.549 24.7338 17.7141 22.4646 19.1172C20.6204 20.2553 18.5408 20.6805 16.4644 19.9839C15.9523 19.8249 15.505 19.5049 15.1892 19.0714C15.3006 19.0327 15.4097 18.9879 15.5162 18.9373C15.7094 19.1505 15.9442 19.322 16.2061 19.4409C17.3035 19.9318 18.5322 20.0468 19.7016 19.768C21.6896 19.2872 23.4193 17.9561 24.8058 16.4975C25.8063 15.4305 26.6838 14.2545 27.4216 12.9914C27.6784 12.9984 27.9338 13.0324 28.1835 13.0928Z" fill="#C98643"/>
<path d="M32.1945 17.2363C30.7575 18.9181 29.1561 20.452 27.414 21.8151C26.5504 22.5017 25.6427 23.1309 24.6968 23.6989C24.1344 23.8232 23.5524 23.9474 22.9409 24.0685C24.7481 23.2476 26.4162 22.1497 27.8849 20.8143C29.3367 19.5345 30.6788 18.1353 31.8969 16.6313C32.0016 16.834 32.0997 17.0368 32.1945 17.2363Z" fill="#C98643"/>
<path d="M20.3805 26.5542C19.3995 27.156 18.8142 28.631 19.3995 29.5828C19.4257 29.6318 19.5271 29.6122 19.5205 29.5566C19.4741 29.1163 19.5277 28.6711 19.6771 28.2544C19.8266 27.8376 20.0681 27.4599 20.3838 27.1495C20.8054 26.7651 21.3534 26.5486 21.9238 26.5412C22.5778 26.4986 22.8656 27.0841 23.3789 27.2836C23.4835 27.3261 23.6176 27.2574 23.5816 27.1495C23.1762 25.9263 21.3843 25.9459 20.3805 26.5542Z" fill="#390A0A"/>
<path d="M23.8429 29.3019C23.8429 30.8881 22.8619 32.1767 21.6652 32.1767C20.4684 32.1767 19.4907 30.8881 19.4907 29.3019C19.4907 27.7156 20.4717 26.4271 21.6652 26.4271C22.8587 26.4271 23.8429 27.7156 23.8429 29.3019Z" fill="white"/>
<path d="M23.3829 29.3867C23.3829 30.5674 22.6406 31.5257 21.7251 31.5257C20.8095 31.5257 20.0673 30.5674 20.0673 29.3867C20.0673 28.2061 20.8095 27.2445 21.7251 27.2445C22.6406 27.2445 23.3829 28.2126 23.3829 29.3867Z" fill="#3D79CA"/>
<path d="M23.1177 29.4193C23.1177 30.4005 22.5096 31.2246 21.7608 31.2246C21.012 31.2246 20.4038 30.4168 20.4038 29.4193C20.4038 28.4218 21.012 27.614 21.7608 27.614C22.5096 27.614 23.1177 28.4251 23.1177 29.4193Z" fill="#390A0A"/>
<path d="M23.3821 27.8659C23.3821 28.0621 22.9962 28.2191 22.5221 28.2191C22.048 28.2191 21.6654 28.0621 21.6654 27.8659C21.6654 27.6697 22.0512 27.5094 22.5221 27.5094C22.9929 27.5094 23.3821 27.6664 23.3821 27.8659Z" fill="white"/>
<path d="M31.4322 26.5542C32.4132 27.156 32.9985 28.631 32.4132 29.5828C32.387 29.6318 32.2856 29.6122 32.2922 29.5566C32.3386 29.1163 32.285 28.6711 32.1356 28.2544C31.9861 27.8376 31.7446 27.4599 31.4289 27.1495C31.0085 26.7653 30.4616 26.5488 29.8921 26.5412C29.2382 26.4986 28.9472 27.0841 28.4338 27.2836C28.3292 27.3261 28.1951 27.2574 28.2311 27.1495C28.6365 25.9263 30.4284 25.9459 31.4322 26.5542Z" fill="#390A0A"/>
<path d="M32.1658 29.3019C32.1658 30.8881 31.1848 32.1767 29.9913 32.1767C28.7978 32.1767 27.8169 30.8881 27.8169 29.3019C27.8169 27.7156 28.7978 26.4271 29.9913 26.4271C31.1848 26.4271 32.1658 27.7156 32.1658 29.3019Z" fill="white"/>
<path d="M31.704 29.3867C31.704 30.5674 30.9618 31.5257 30.0462 31.5257C29.1307 31.5257 28.3884 30.5772 28.3884 29.3867C28.3884 28.1963 29.1307 27.2445 30.043 27.2445C30.9552 27.2445 31.704 28.2126 31.704 29.3867Z" fill="#3D79CA"/>
<path d="M31.4432 29.4193C31.4432 30.4005 30.835 31.2246 30.0829 31.2246C29.3309 31.2246 28.726 30.4168 28.726 29.4193C28.726 28.4218 29.3341 27.614 30.0829 27.614C30.8317 27.614 31.4432 28.4251 31.4432 29.4193Z" fill="#390A0A"/>
<path d="M31.7039 27.8659C31.7039 28.0621 31.3213 28.2191 30.8472 28.2191C30.373 28.2191 29.9905 28.0621 29.9905 27.8659C29.9905 27.6697 30.373 27.5094 30.8472 27.5094C31.3213 27.5094 31.7039 27.6664 31.7039 27.8659Z" fill="white"/>
<path d="M25.8458 27.9147C25.8458 27.9147 25.1919 27.2605 25.0741 29.5892C24.9564 31.9178 25.0741 34.3511 25.0741 34.3511C25.0741 34.3511 23.5308 33.4484 24.0442 34.737C24.3221 35.4303 24.9761 35.7868 25.6791 35.97C25.9345 36.0438 26.2056 36.043 26.4606 35.9677C26.7155 35.8923 26.9435 35.7456 27.1178 35.5448C27.3009 35.3649 28.2557 34.3968 27.9549 34.096C27.811 33.9488 26.9739 34.2955 26.7614 34.3511C26.7549 34.3511 27.0033 27.4012 25.8458 27.9147Z" fill="#E1A387"/>
<path d="M29.6964 37.3442C29.6964 37.3442 26.6652 42.5411 22.4799 37.5405C22.4799 37.5405 24.9191 36.7163 25.8118 37.4489L26.1388 37.8185C26.1388 37.8185 27.0805 36.6574 29.6964 37.3442Z" fill="#CE8D75"/>
<path d="M29.6964 37.344C29.6964 37.344 26.6652 42.5409 22.4799 37.5403C22.5027 37.5403 26.5933 39.4176 29.6964 37.344Z" fill="#E1A387"/>
<path d="M24.2496 25.3691C24.2496 25.9185 22.8482 25.6088 21.1354 25.6088C19.4225 25.6088 18.0211 25.9185 18.0211 25.3691C18.0211 24.8197 19.4194 23.6192 21.1354 23.6192C22.8513 23.6192 24.2496 24.8197 24.2496 25.3691Z" fill="#343434"/>
<path d="M33.2458 25.3691C33.2458 25.9185 31.8475 25.6088 30.1316 25.6088C28.4156 25.6088 27.0173 25.9185 27.0173 25.3691C27.0173 24.8197 28.4156 23.6192 30.1316 23.6192C31.8475 23.6192 33.2458 24.8197 33.2458 25.3691Z" fill="#343434"/>
</g>
</svg>
